<?xml version="1.0" standalone="no"?>
<!DOCTYPE svg PUBLIC "-//W3C//DTD SVG 20010904//EN"
 "http://www.w3.org/TR/2001/REC-SVG-20010904/DTD/svg10.dtd">
<svg version="1.0" xmlns="http://www.w3.org/2000/svg"
 width="650.000000pt" height="650.000000pt" viewBox="0 0 650.000000 650.000000"
 preserveAspectRatio="xMidYMid meet">
<metadata>
Created by potrace 1.11, written by Peter Selinger 2001-2013
</metadata>
<g transform="translate(0.000000,650.000000) scale(0.100000,-0.100000)"
fill="#000000" stroke="none">
<path d="M400 5750 l0 -350 350 0 350 0 0 350 0 350 -350 0 -350 0 0 -350z
m600 0 l0 -250 -250 0 -250 0 0 250 0 250 250 0 250 0 0 -250z"/>
<path d="M600 5750 l0 -150 150 0 150 0 0 150 0 150 -150 0 -150 0 0 -150z"/>
<path d="M1200 5900 l0 -200 50 0 50 0 0 50 0 50 50 0 50 0 0 50 0 50 -50 0
-50 0 0 50 0 50 200 0 200 0 0 50 0 50 -250 0 -250 0 0 -200z"/>
<path d="M1900 6050 l0 -50 -50 0 -50 0 0 -100 0 -100 -50 0 -50 0 0 -50 0
-50 -50 0 -50 0 0 -50 0 -50 50 0 50 0 0 -50 0 -50 -50 0 -50 0 0 -50 0 -50
-50 0 -50 0 0 150 0 150 -50 0 -50 0 0 -50 0 -50 -100 0 -100 0 0 -100 0 -100
50 0 50 0 0 -50 0 -50 50 0 50 0 0 -50 0 -50 50 0 50 0 0 50 0 50 50 0 50 0 0
-100 0 -100 -100 0 -100 0 0 -50 0 -50 -50 0 -50 0 0 -50 0 -50 50 0 50 0 0
50 0 50 100 0 100 0 0 -50 0 -50 -50 0 -50 0 0 -50 0 -50 -50 0 -50 0 0 -50 0
-50 50 0 50 0 0 -50 0 -50 -100 0 -100 0 0 50 0 50 -50 0 -50 0 0 100 0 100
-150 0 -150 0 0 50 0 50 -50 0 -50 0 0 100 0 100 50 0 50 0 0 -50 0 -50 50 0
50 0 0 -50 0 -50 100 0 100 0 0 50 0 50 -100 0 -100 0 0 50 0 50 50 0 50 0 0
50 0 50 -150 0 -150 0 0 -50 0 -50 -50 0 -50 0 0 -50 0 -50 -50 0 -50 0 0 -50
0 -50 -100 0 -100 0 0 -50 0 -50 50 0 50 0 0 -50 0 -50 -50 0 -50 0 0 -50 0
-50 100 0 100 0 0 -50 0 -50 50 0 50 0 0 50 0 50 50 0 50 0 0 100 0 100 50 0
50 0 0 -50 0 -50 100 0 100 0 0 -50 0 -50 -50 0 -50 0 0 -50 0 -50 -100 0
-100 0 0 -50 0 -50 -50 0 -50 0 0 -50 0 -50 200 0 200 0 0 -50 0 -50 -100 0
-100 0 0 -150 0 -150 -50 0 -50 0 0 50 0 50 -50 0 -50 0 0 50 0 50 -100 0
-100 0 0 100 0 100 50 0 50 0 0 50 0 50 -50 0 -50 0 0 50 0 50 -50 0 -50 0 0
-50 0 -50 50 0 50 0 0 -50 0 -50 -50 0 -50 0 0 -200 0 -200 50 0 50 0 0 -50 0
-50 -50 0 -50 0 0 -50 0 -50 50 0 50 0 0 50 0 50 100 0 100 0 0 -50 0 -50 -50
0 -50 0 0 -50 0 -50 50 0 50 0 0 50 0 50 50 0 50 0 0 -150 0 -150 -100 0 -100
0 0 50 0 50 -50 0 -50 0 0 50 0 50 -50 0 -50 0 0 -100 0 -100 100 0 100 0 0
-50 0 -50 100 0 100 0 0 -50 0 -50 -100 0 -100 0 0 -50 0 -50 50 0 50 0 0 -50
0 -50 -100 0 -100 0 0 50 0 50 -50 0 -50 0 0 -50 0 -50 50 0 50 0 0 -50 0 -50
-50 0 -50 0 0 -100 0 -100 50 0 50 0 0 -100 0 -100 -50 0 -50 0 0 -100 0 -100
50 0 50 0 0 50 0 50 50 0 50 0 0 -50 0 -50 50 0 50 0 0 -100 0 -100 -50 0 -50
0 0 50 0 50 -100 0 -100 0 0 -50 0 -50 50 0 50 0 0 -50 0 -50 50 0 50 0 0 -50
0 -50 50 0 50 0 0 50 0 50 50 0 50 0 0 -50 0 -50 150 0 150 0 0 -50 0 -50
-100 0 -100 0 0 -50 0 -50 -100 0 -100 0 0 50 0 50 -100 0 -100 0 0 -50 0 -50
50 0 50 0 0 -50 0 -50 50 0 50 0 0 -50 0 -50 -50 0 -50 0 0 -100 0 -100 -50 0
-50 0 0 100 0 100 -50 0 -50 0 0 -150 0 -150 250 0 250 0 0 50 0 50 150 0 150
0 0 50 0 50 -100 0 -100 0 0 50 0 50 150 0 150 0 0 -150 0 -150 50 0 50 0 0
-100 0 -100 -50 0 -50 0 0 50 0 50 -50 0 -50 0 0 50 0 50 -100 0 -100 0 0 -50
0 -50 100 0 100 0 0 -50 0 -50 50 0 50 0 0 -50 0 -50 -50 0 -50 0 0 -100 0
-100 50 0 50 0 0 50 0 50 150 0 150 0 0 -50 0 -50 50 0 50 0 0 -50 0 -50 -150
0 -150 0 0 -50 0 -50 -100 0 -100 0 0 -100 0 -100 50 0 50 0 0 50 0 50 100 0
100 0 0 -50 0 -50 50 0 50 0 0 50 0 50 250 0 250 0 0 100 0 100 -50 0 -50 0 0
50 0 50 -50 0 -50 0 0 50 0 50 100 0 100 0 0 -50 0 -50 50 0 50 0 0 -100 0
-100 50 0 50 0 0 -50 0 -50 -50 0 -50 0 0 -50 0 -50 400 0 400 0 0 50 0 50
-150 0 -150 0 0 100 0 100 100 0 100 0 0 -50 0 -50 50 0 50 0 0 50 0 50 50 0
50 0 0 -100 0 -100 100 0 100 0 0 -50 0 -50 50 0 50 0 0 50 0 50 50 0 50 0 0
-50 0 -50 50 0 50 0 0 50 0 50 50 0 50 0 0 -50 0 -50 50 0 50 0 0 50 0 50 50
0 50 0 0 50 0 50 -50 0 -50 0 0 50 0 50 50 0 50 0 0 50 0 50 100 0 100 0 0
-50 0 -50 50 0 50 0 0 -50 0 -50 -100 0 -100 0 0 -50 0 -50 50 0 50 0 0 -50 0
-50 100 0 100 0 0 100 0 100 100 0 100 0 0 100 0 100 -200 0 -200 0 0 50 0 50
-100 0 -100 0 0 50 0 50 -100 0 -100 0 0 100 0 100 50 0 50 0 0 -50 0 -50 50
0 50 0 0 50 0 50 50 0 50 0 0 -100 0 -100 50 0 50 0 0 100 0 100 100 0 100 0
0 -50 0 -50 -50 0 -50 0 0 -50 0 -50 150 0 150 0 0 50 0 50 50 0 50 0 0 50 0
50 50 0 50 0 0 50 0 50 -100 0 -100 0 0 50 0 50 50 0 50 0 0 50 0 50 100 0
100 0 0 100 0 100 50 0 50 0 0 50 0 50 50 0 50 0 0 -100 0 -100 -50 0 -50 0 0
-150 0 -150 150 0 150 0 0 -100 0 -100 -100 0 -100 0 0 50 0 50 -100 0 -100 0
0 -50 0 -50 -50 0 -50 0 0 -150 0 -150 -50 0 -50 0 0 -50 0 -50 50 0 50 0 0
-50 0 -50 150 0 150 0 0 -50 0 -50 -50 0 -50 0 0 -50 0 -50 50 0 50 0 0 50 0
50 50 0 50 0 0 -50 0 -50 50 0 50 0 0 50 0 50 -50 0 -50 0 0 50 0 50 -50 0
-50 0 0 50 0 50 -50 0 -50 0 0 50 0 50 -50 0 -50 0 0 50 0 50 100 0 100 0 0
-50 0 -50 50 0 50 0 0 -50 0 -50 50 0 50 0 0 -50 0 -50 50 0 50 0 0 50 0 50
50 0 50 0 0 -100 0 -100 -50 0 -50 0 0 -50 0 -50 100 0 100 0 0 50 0 50 50 0
50 0 0 -50 0 -50 250 0 250 0 0 100 0 100 -50 0 -50 0 0 -50 0 -50 -200 0
-200 0 0 50 0 50 -50 0 -50 0 0 50 0 50 100 0 100 0 0 200 0 200 150 0 150 0
0 -50 0 -50 -50 0 -50 0 0 -150 0 -150 100 0 100 0 0 200 0 200 -50 0 -50 0 0
50 0 50 -150 0 -150 0 0 50 0 50 50 0 50 0 0 50 0 50 -100 0 -100 0 0 50 0 50
200 0 200 0 0 -50 0 -50 50 0 50 0 0 50 0 50 -50 0 -50 0 0 50 0 50 50 0 50 0
0 50 0 50 -50 0 -50 0 0 -50 0 -50 -100 0 -100 0 0 50 0 50 -50 0 -50 0 0 50
0 50 -50 0 -50 0 0 50 0 50 -50 0 -50 0 0 100 0 100 -50 0 -50 0 0 50 0 50 50
0 50 0 0 50 0 50 50 0 50 0 0 -150 0 -150 50 0 50 0 0 50 0 50 50 0 50 0 0
100 0 100 50 0 50 0 0 -150 0 -150 -50 0 -50 0 0 -100 0 -100 50 0 50 0 0 100
0 100 100 0 100 0 0 50 0 50 -50 0 -50 0 0 150 0 150 50 0 50 0 0 150 0 150
-50 0 -50 0 0 -150 0 -150 -50 0 -50 0 0 50 0 50 -50 0 -50 0 0 50 0 50 -50 0
-50 0 0 -150 0 -150 -50 0 -50 0 0 50 0 50 -100 0 -100 0 0 50 0 50 -50 0 -50
0 0 50 0 50 50 0 50 0 0 50 0 50 50 0 50 0 0 -50 0 -50 50 0 50 0 0 100 0 100
100 0 100 0 0 -50 0 -50 50 0 50 0 0 50 0 50 50 0 50 0 0 50 0 50 -150 0 -150
0 0 100 0 100 50 0 50 0 0 -50 0 -50 50 0 50 0 0 100 0 100 50 0 50 0 0 100 0
100 50 0 50 0 0 250 0 250 -100 0 -100 0 0 -50 0 -50 -100 0 -100 0 0 -50 0
-50 -50 0 -50 0 0 50 0 50 -50 0 -50 0 0 -50 0 -50 -100 0 -100 0 0 -50 0 -50
-50 0 -50 0 0 -150 0 -150 -50 0 -50 0 0 50 0 50 -50 0 -50 0 0 -100 0 -100
100 0 100 0 0 -50 0 -50 -150 0 -150 0 0 -100 0 -100 100 0 100 0 0 -50 0 -50
50 0 50 0 0 -50 0 -50 -150 0 -150 0 0 50 0 50 -50 0 -50 0 0 -50 0 -50 -50 0
-50 0 0 -50 0 -50 50 0 50 0 0 -50 0 -50 -50 0 -50 0 0 -50 0 -50 -50 0 -50 0
0 -50 0 -50 -200 0 -200 0 0 50 0 50 50 0 50 0 0 50 0 50 50 0 50 0 0 -50 0
-50 50 0 50 0 0 50 0 50 -50 0 -50 0 0 50 0 50 100 0 100 0 0 50 0 50 -100 0
-100 0 0 -50 0 -50 -50 0 -50 0 0 50 0 50 -50 0 -50 0 0 -50 0 -50 -50 0 -50
0 0 100 0 100 100 0 100 0 0 50 0 50 50 0 50 0 0 50 0 50 100 0 100 0 0 50 0
50 50 0 50 0 0 -50 0 -50 50 0 50 0 0 100 0 100 50 0 50 0 0 50 0 50 -50 0
-50 0 0 50 0 50 50 0 50 0 0 100 0 100 50 0 50 0 0 -50 0 -50 50 0 50 0 0 50
0 50 -50 0 -50 0 0 100 0 100 50 0 50 0 0 -50 0 -50 50 0 50 0 0 50 0 50 50 0
50 0 0 150 0 150 50 0 50 0 0 -100 0 -100 50 0 50 0 0 150 0 150 50 0 50 0 0
100 0 100 -50 0 -50 0 0 50 0 50 -100 0 -100 0 0 -50 0 -50 100 0 100 0 0 -50
0 -50 -50 0 -50 0 0 -50 0 -50 -100 0 -100 0 0 50 0 50 -50 0 -50 0 0 50 0 50
50 0 50 0 0 100 0 100 50 0 50 0 0 100 0 100 100 0 100 0 0 -50 0 -50 -50 0
-50 0 0 -50 0 -50 50 0 50 0 0 50 0 50 50 0 50 0 0 -50 0 -50 50 0 50 0 0 -50
0 -50 100 0 100 0 0 -50 0 -50 -50 0 -50 0 0 -50 0 -50 -50 0 -50 0 0 -50 0
-50 50 0 50 0 0 50 0 50 50 0 50 0 0 50 0 50 50 0 50 0 0 -50 0 -50 50 0 50 0
0 50 0 50 -50 0 -50 0 0 50 0 50 -50 0 -50 0 0 100 0 100 50 0 50 0 0 -50 0
-50 50 0 50 0 0 100 0 100 -150 0 -150 0 0 50 0 50 -50 0 -50 0 0 100 0 100
100 0 100 0 0 50 0 50 100 0 100 0 0 50 0 50 -200 0 -200 0 0 -50 0 -50 -50 0
-50 0 0 50 0 50 -50 0 -50 0 0 -50 0 -50 -150 0 -150 0 0 -50 0 -50 -50 0 -50
0 0 50 0 50 -50 0 -50 0 0 100 0 100 50 0 50 0 0 -50 0 -50 50 0 50 0 0 50 0
50 50 0 50 0 0 50 0 50 -50 0 -50 0 0 -50 0 -50 -50 0 -50 0 0 100 0 100 50 0
50 0 0 250 0 250 -100 0 -100 0 0 -50 0 -50 50 0 50 0 0 -50 0 -50 -150 0
-150 0 0 -50 0 -50 50 0 50 0 0 -50 0 -50 50 0 50 0 0 50 0 50 50 0 50 0 0
-100 0 -100 -50 0 -50 0 0 -100 0 -100 -50 0 -50 0 0 50 0 50 -50 0 -50 0 0
-50 0 -50 -50 0 -50 0 0 50 0 50 -50 0 -50 0 0 -50 0 -50 -50 0 -50 0 0 50 0
50 -50 0 -50 0 0 -50 0 -50 50 0 50 0 0 -50 0 -50 -50 0 -50 0 0 -50 0 -50
-50 0 -50 0 0 150 0 150 -50 0 -50 0 0 100 0 100 50 0 50 0 0 -50 0 -50 100 0
100 0 0 50 0 50 -50 0 -50 0 0 200 0 200 -300 0 -300 0 0 -50 0 -50 -50 0 -50
0 0 50 0 50 -150 0 -150 0 0 -50 0 -50 -50 0 -50 0 0 -50 0 -50 -100 0 -100 0
0 100 0 100 -200 0 -200 0 0 -50 0 -50 -50 0 -50 0 0 -50 0 -50 100 0 100 0 0
50 0 50 50 0 50 0 0 -50 0 -50 50 0 50 0 0 -50 0 -50 -50 0 -50 0 0 -100 0
-100 -50 0 -50 0 0 -100 0 -100 -50 0 -50 0 0 100 0 100 -50 0 -50 0 0 -100 0
-100 50 0 50 0 0 -100 0 -100 50 0 50 0 0 -50 0 -50 50 0 50 0 0 -50 0 -50
-100 0 -100 0 0 50 0 50 -50 0 -50 0 0 50 0 50 -50 0 -50 0 0 -150 0 -150 -50
0 -50 0 0 -50 0 -50 100 0 100 0 0 50 0 50 50 0 50 0 0 -100 0 -100 -50 0 -50
0 0 -50 0 -50 -50 0 -50 0 0 -50 0 -50 -50 0 -50 0 0 100 0 100 -50 0 -50 0 0
50 0 50 -50 0 -50 0 0 -50 0 -50 50 0 50 0 0 -50 0 -50 -100 0 -100 0 0 150 0
150 100 0 100 0 0 50 0 50 50 0 50 0 0 100 0 100 -50 0 -50 0 0 -50 0 -50
-100 0 -100 0 0 200 0 200 50 0 50 0 0 -50 0 -50 50 0 50 0 0 -50 0 -50 100 0
100 0 0 100 0 100 -50 0 -50 0 0 200 0 200 -50 0 -50 0 0 50 0 50 100 0 100 0
0 50 0 50 -100 0 -100 0 0 -50 0 -50 -50 0 -50 0 0 50 0 50 -50 0 -50 0 0 -50
0 -50 50 0 50 0 0 -150 0 -150 -50 0 -50 0 0 100 0 100 -50 0 -50 0 0 -100 0
-100 50 0 50 0 0 -100 0 -100 -50 0 -50 0 0 50 0 50 -100 0 -100 0 0 100 0
100 50 0 50 0 0 100 0 100 50 0 50 0 0 50 0 50 -50 0 -50 0 0 -50z m2100 -100
l0 -50 -50 0 -50 0 0 50 0 50 50 0 50 0 0 -50z m200 0 l0 -50 50 0 50 0 0 -50
0 -50 -50 0 -50 0 0 -50 0 -50 -50 0 -50 0 0 -50 0 -50 -150 0 -150 0 0 -100
0 -100 -50 0 -50 0 0 100 0 100 -50 0 -50 0 0 -100 0 -100 -50 0 -50 0 0 250
0 250 50 0 50 0 0 -50 0 -50 50 0 50 0 0 50 0 50 50 0 50 0 0 -100 0 -100 50
0 50 0 0 50 0 50 50 0 50 0 0 -50 0 -50 50 0 50 0 0 150 0 150 50 0 50 0 0
-50z m-1100 -200 l0 -50 -50 0 -50 0 0 50 0 50 50 0 50 0 0 -50z m300 0 l0
-50 -50 0 -50 0 0 50 0 50 50 0 50 0 0 -50z m-1100 -200 l0 -50 50 0 50 0 0
-50 0 -50 -50 0 -50 0 0 50 0 50 -50 0 -50 0 0 50 0 50 50 0 50 0 0 -50z
m1100 -100 l0 -150 -150 0 -150 0 0 150 0 150 150 0 150 0 0 -150z m-2000 0
l0 -50 50 0 50 0 0 -50 0 -50 -50 0 -50 0 0 50 0 50 -50 0 -50 0 0 50 0 50 50
0 50 0 0 -50z m400 0 l0 -50 50 0 50 0 0 50 0 50 50 0 50 0 0 -50 0 -50 -50 0
-50 0 0 -100 0 -100 50 0 50 0 0 -100 0 -100 50 0 50 0 0 -50 0 -50 -100 0
-100 0 0 -50 0 -50 50 0 50 0 0 -50 0 -50 -50 0 -50 0 0 50 0 50 -100 0 -100
0 0 -50 0 -50 -100 0 -100 0 0 50 0 50 100 0 100 0 0 100 0 100 -50 0 -50 0 0
50 0 50 50 0 50 0 0 50 0 50 50 0 50 0 0 100 0 100 -50 0 -50 0 0 50 0 50 50
0 50 0 0 -50z m1200 -50 l0 -100 -50 0 -50 0 0 -50 0 -50 -50 0 -50 0 0 50 0
50 50 0 50 0 0 100 0 100 50 0 50 0 0 -100z m1000 50 l0 -50 50 0 50 0 0 50 0
50 50 0 50 0 0 -50 0 -50 -50 0 -50 0 0 -50 0 -50 50 0 50 0 0 -50 0 -50 50 0
50 0 0 -150 0 -150 50 0 50 0 0 50 0 50 100 0 100 0 0 50 0 50 -100 0 -100 0
0 50 0 50 150 0 150 0 0 -50 0 -50 50 0 50 0 0 -100 0 -100 50 0 50 0 0 -50 0
-50 -50 0 -50 0 0 -50 0 -50 -50 0 -50 0 0 -50 0 -50 -50 0 -50 0 0 -50 0 -50
-50 0 -50 0 0 -50 0 -50 150 0 150 0 0 50 0 50 100 0 100 0 0 -150 0 -150 100
0 100 0 0 -150 0 -150 -50 0 -50 0 0 100 0 100 -100 0 -100 0 0 150 0 150 -50
0 -50 0 0 -50 0 -50 -150 0 -150 0 0 -100 0 -100 50 0 50 0 0 50 0 50 100 0
100 0 0 -100 0 -100 -50 0 -50 0 0 -50 0 -50 50 0 50 0 0 -50 0 -50 50 0 50 0
0 -100 0 -100 -50 0 -50 0 0 -50 0 -50 -100 0 -100 0 0 -50 0 -50 50 0 50 0 0
-50 0 -50 -50 0 -50 0 0 -50 0 -50 -50 0 -50 0 0 -50 0 -50 -50 0 -50 0 0 -50
0 -50 -100 0 -100 0 0 -50 0 -50 -50 0 -50 0 0 -50 0 -50 -50 0 -50 0 0 -200
0 -200 50 0 50 0 0 50 0 50 50 0 50 0 0 -50 0 -50 -50 0 -50 0 0 -50 0 -50 50
0 50 0 0 -50 0 -50 -50 0 -50 0 0 -50 0 -50 50 0 50 0 0 -50 0 -50 50 0 50 0
0 -50 0 -50 50 0 50 0 0 50 0 50 200 0 200 0 0 50 0 50 -50 0 -50 0 0 50 0 50
50 0 50 0 0 50 0 50 50 0 50 0 0 50 0 50 50 0 50 0 0 50 0 50 -50 0 -50 0 0
50 0 50 50 0 50 0 0 -50 0 -50 50 0 50 0 0 -50 0 -50 50 0 50 0 0 50 0 50 50
0 50 0 0 -50 0 -50 50 0 50 0 0 -50 0 -50 -100 0 -100 0 0 -50 0 -50 50 0 50
0 0 -50 0 -50 -50 0 -50 0 0 -50 0 -50 50 0 50 0 0 -50 0 -50 100 0 100 0 0
-100 0 -100 -50 0 -50 0 0 -50 0 -50 -50 0 -50 0 0 -50 0 -50 50 0 50 0 0
-100 0 -100 -100 0 -100 0 0 50 0 50 -100 0 -100 0 0 100 0 100 50 0 50 0 0
-50 0 -50 50 0 50 0 0 50 0 50 50 0 50 0 0 50 0 50 -50 0 -50 0 0 50 0 50 50
0 50 0 0 50 0 50 -100 0 -100 0 0 -50 0 -50 -50 0 -50 0 0 50 0 50 -50 0 -50
0 0 50 0 50 -50 0 -50 0 0 -50 0 -50 -100 0 -100 0 0 -50 0 -50 100 0 100 0 0
-50 0 -50 -100 0 -100 0 0 -100 0 -100 -50 0 -50 0 0 -50 0 -50 -50 0 -50 0 0
-100 0 -100 50 0 50 0 0 -50 0 -50 -50 0 -50 0 0 50 0 50 -50 0 -50 0 0 100 0
100 -50 0 -50 0 0 -50 0 -50 -50 0 -50 0 0 -50 0 -50 -50 0 -50 0 0 50 0 50
50 0 50 0 0 50 0 50 -50 0 -50 0 0 50 0 50 -50 0 -50 0 0 -50 0 -50 -50 0 -50
0 0 -50 0 -50 50 0 50 0 0 -50 0 -50 -50 0 -50 0 0 50 0 50 -50 0 -50 0 0 -50
0 -50 -100 0 -100 0 0 100 0 100 -50 0 -50 0 0 50 0 50 50 0 50 0 0 -50 0 -50
50 0 50 0 0 50 0 50 50 0 50 0 0 50 0 50 -50 0 -50 0 0 50 0 50 -50 0 -50 0 0
-50 0 -50 -100 0 -100 0 0 -50 0 -50 -50 0 -50 0 0 -50 0 -50 -50 0 -50 0 0
50 0 50 50 0 50 0 0 50 0 50 -100 0 -100 0 0 -50 0 -50 -50 0 -50 0 0 -50 0
-50 50 0 50 0 0 -50 0 -50 -50 0 -50 0 0 -50 0 -50 50 0 50 0 0 -100 0 -100
-50 0 -50 0 0 -100 0 -100 50 0 50 0 0 -50 0 -50 -50 0 -50 0 0 50 0 50 -100
0 -100 0 0 -50 0 -50 -50 0 -50 0 0 -100 0 -100 -50 0 -50 0 0 100 0 100 -50
0 -50 0 0 -50 0 -50 -50 0 -50 0 0 50 0 50 50 0 50 0 0 50 0 50 -100 0 -100 0
0 50 0 50 100 0 100 0 0 50 0 50 -50 0 -50 0 0 50 0 50 50 0 50 0 0 -50 0 -50
100 0 100 0 0 -50 0 -50 50 0 50 0 0 50 0 50 100 0 100 0 0 100 0 100 -50 0
-50 0 0 -50 0 -50 -50 0 -50 0 0 50 0 50 -100 0 -100 0 0 50 0 50 -50 0 -50 0
0 -50 0 -50 -150 0 -150 0 0 50 0 50 -50 0 -50 0 0 -100 0 -100 -50 0 -50 0 0
100 0 100 50 0 50 0 0 50 0 50 50 0 50 0 0 50 0 50 -150 0 -150 0 0 -250 0
-250 -200 0 -200 0 0 50 0 50 100 0 100 0 0 50 0 50 -50 0 -50 0 0 50 0 50
-50 0 -50 0 0 100 0 100 50 0 50 0 0 50 0 50 -100 0 -100 0 0 50 0 50 -50 0
-50 0 0 50 0 50 50 0 50 0 0 50 0 50 50 0 50 0 0 50 0 50 200 0 200 0 0 -50 0
-50 50 0 50 0 0 100 0 100 -200 0 -200 0 0 50 0 50 50 0 50 0 0 50 0 50 -50 0
-50 0 0 50 0 50 -100 0 -100 0 0 -50 0 -50 50 0 50 0 0 -50 0 -50 -50 0 -50 0
0 -50 0 -50 -150 0 -150 0 0 50 0 50 150 0 150 0 0 50 0 50 -50 0 -50 0 0 50
0 50 -50 0 -50 0 0 -50 0 -50 -50 0 -50 0 0 50 0 50 50 0 50 0 0 50 0 50 -50
0 -50 0 0 50 0 50 -50 0 -50 0 0 100 0 100 -50 0 -50 0 0 100 0 100 150 0 150
0 0 -50 0 -50 -100 0 -100 0 0 -50 0 -50 200 0 200 0 0 -50 0 -50 100 0 100 0
0 100 0 100 -50 0 -50 0 0 50 0 50 100 0 100 0 0 -50 0 -50 50 0 50 0 0 50 0
50 100 0 100 0 0 -150 0 -150 -50 0 -50 0 0 100 0 100 -50 0 -50 0 0 -200 0
-200 -50 0 -50 0 0 -100 0 -100 100 0 100 0 0 50 0 50 50 0 50 0 0 50 0 50
-50 0 -50 0 0 50 0 50 100 0 100 0 0 -50 0 -50 50 0 50 0 0 -50 0 -50 50 0 50
0 0 50 0 50 100 0 100 0 0 50 0 50 -100 0 -100 0 0 50 0 50 -50 0 -50 0 0 50
0 50 50 0 50 0 0 50 0 50 50 0 50 0 0 -50 0 -50 100 0 100 0 0 50 0 50 50 0
50 0 0 50 0 50 100 0 100 0 0 50 0 50 -200 0 -200 0 0 -50 0 -50 -150 0 -150
0 0 -50 0 -50 -50 0 -50 0 0 100 0 100 50 0 50 0 0 50 0 50 -50 0 -50 0 0 50
0 50 -50 0 -50 0 0 -50 0 -50 -150 0 -150 0 0 -50 0 -50 -50 0 -50 0 0 50 0
50 50 0 50 0 0 50 0 50 -50 0 -50 0 0 100 0 100 -50 0 -50 0 0 -100 0 -100
-50 0 -50 0 0 100 0 100 50 0 50 0 0 50 0 50 50 0 50 0 0 50 0 50 50 0 50 0 0
-50 0 -50 50 0 50 0 0 100 0 100 -200 0 -200 0 0 -100 0 -100 -100 0 -100 0 0
-50 0 -50 -100 0 -100 0 0 50 0 50 100 0 100 0 0 50 0 50 -100 0 -100 0 0 50
0 50 -50 0 -50 0 0 50 0 50 50 0 50 0 0 50 0 50 100 0 100 0 0 50 0 50 -50 0
-50 0 0 50 0 50 50 0 50 0 0 50 0 50 50 0 50 0 0 50 0 50 -50 0 -50 0 0 50 0
50 -50 0 -50 0 0 50 0 50 50 0 50 0 0 50 0 50 50 0 50 0 0 -100 0 -100 50 0
50 0 0 -50 0 -50 50 0 50 0 0 -50 0 -50 50 0 50 0 0 50 0 50 50 0 50 0 0 100
0 100 50 0 50 0 0 -50 0 -50 50 0 50 0 0 50 0 50 50 0 50 0 0 -50 0 -50 50 0
50 0 0 50 0 50 50 0 50 0 0 -50 0 -50 150 0 150 0 0 -150 0 -150 50 0 50 0 0
-50 0 -50 50 0 50 0 0 50 0 50 50 0 50 0 0 150 0 150 -50 0 -50 0 0 50 0 50
50 0 50 0 0 -50 0 -50 100 0 100 0 0 50 0 50 -50 0 -50 0 0 50 0 50 50 0 50 0
0 50 0 50 50 0 50 0 0 50 0 50 -50 0 -50 0 0 50 0 50 50 0 50 0 0 -50 0 -50
50 0 50 0 0 -50 0 -50 250 0 250 0 0 50 0 50 -100 0 -100 0 0 50 0 50 100 0
100 0 0 50 0 50 -250 0 -250 0 0 50 0 50 250 0 250 0 0 50 0 50 50 0 50 0 0
-50 0 -50 50 0 50 0 0 50 0 50 50 0 50 0 0 100 0 100 50 0 50 0 0 -50z m900
-200 l0 -50 50 0 50 0 0 -100 0 -100 -50 0 -50 0 0 100 0 100 -50 0 -50 0 0
50 0 50 50 0 50 0 0 -50z m700 -100 l0 -50 -50 0 -50 0 0 -100 0 -100 -100 0
-100 0 0 100 0 100 100 0 100 0 0 50 0 50 50 0 50 0 0 -50z m-2300 -200 l0
-50 -50 0 -50 0 0 50 0 50 50 0 50 0 0 -50z m1900 -150 l0 -100 -50 0 -50 0 0
-50 0 -50 -100 0 -100 0 0 50 0 50 50 0 50 0 0 100 0 100 100 0 100 0 0 -100z
m500 50 l0 -50 -50 0 -50 0 0 50 0 50 50 0 50 0 0 -50z m-5000 -100 l0 -50
-50 0 -50 0 0 50 0 50 50 0 50 0 0 -50z m5100 -100 l0 -50 -50 0 -50 0 0 50 0
50 50 0 50 0 0 -50z m-800 -700 l0 -50 -50 0 -50 0 0 50 0 50 50 0 50 0 0 -50z
m600 -300 l0 -50 100 0 100 0 0 50 0 50 100 0 100 0 0 -50 0 -50 -100 0 -100
0 0 -50 0 -50 100 0 100 0 0 -50 0 -50 -50 0 -50 0 0 -50 0 -50 -50 0 -50 0 0
-50 0 -50 -50 0 -50 0 0 150 0 150 -200 0 -200 0 0 50 0 50 100 0 100 0 0 50
0 50 50 0 50 0 0 -50z m-4400 -400 l0 -150 -150 0 -150 0 0 150 0 150 150 0
150 0 0 -150z m4400 0 l0 -150 -150 0 -150 0 0 150 0 150 150 0 150 0 0 -150z
m-4900 -400 l0 -150 -50 0 -50 0 0 100 0 100 -50 0 -50 0 0 50 0 50 100 0 100
0 0 -150z m4600 100 l0 -50 50 0 50 0 0 -100 0 -100 -50 0 -50 0 0 100 0 100
-100 0 -100 0 0 50 0 50 100 0 100 0 0 -50z m-4600 -400 l0 -50 50 0 50 0 0
-50 0 -50 50 0 50 0 0 -50 0 -50 -50 0 -50 0 0 50 0 50 -50 0 -50 0 0 50 0 50
-50 0 -50 0 0 50 0 50 50 0 50 0 0 -50z m200 -400 l0 -50 -50 0 -50 0 0 50 0
50 50 0 50 0 0 -50z m3700 0 l0 -50 -50 0 -50 0 0 50 0 50 50 0 50 0 0 -50z
m-3500 -400 l0 -50 -50 0 -50 0 0 50 0 50 50 0 50 0 0 -50z m-200 -200 l0
-150 -100 0 -100 0 0 100 0 100 50 0 50 0 0 50 0 50 50 0 50 0 0 -150z m4700
-200 l0 -50 -50 0 -50 0 0 50 0 50 50 0 50 0 0 -50z m-2200 -300 l0 -150 -150
0 -150 0 0 150 0 150 150 0 150 0 0 -150z m2200 0 l0 -150 -150 0 -150 0 0
150 0 150 150 0 150 0 0 -150z m-3400 0 l0 -50 -50 0 -50 0 0 50 0 50 50 0 50
0 0 -50z m2800 0 l0 -50 50 0 50 0 0 -50 0 -50 50 0 50 0 0 -50 0 -50 -50 0
-50 0 0 50 0 50 -50 0 -50 0 0 50 0 50 -50 0 -50 0 0 50 0 50 50 0 50 0 0 -50z
m-3200 -200 l0 -50 50 0 50 0 0 -50 0 -50 50 0 50 0 0 -50 0 -50 -50 0 -50 0
0 50 0 50 -50 0 -50 0 0 -50 0 -50 -50 0 -50 0 0 50 0 50 50 0 50 0 0 50 0 50
-50 0 -50 0 0 50 0 50 50 0 50 0 0 -50z m2100 0 l0 -50 -50 0 -50 0 0 -50 0
-50 -50 0 -50 0 0 -50 0 -50 50 0 50 0 0 -50 0 -50 -50 0 -50 0 0 50 0 50 -50
0 -50 0 0 100 0 100 -50 0 -50 0 0 50 0 50 200 0 200 0 0 -50z m-700 -100 l0
-50 150 0 150 0 0 -50 0 -50 -150 0 -150 0 0 50 0 50 -50 0 -50 0 0 50 0 50
50 0 50 0 0 -50z m1600 0 l0 -50 -50 0 -50 0 0 50 0 50 50 0 50 0 0 -50z
m-3200 -200 l0 -50 -50 0 -50 0 0 50 0 50 50 0 50 0 0 -50z"/>
<path d="M3200 5450 l0 -50 50 0 50 0 0 50 0 50 -50 0 -50 0 0 -50z"/>
<path d="M1700 5050 l0 -50 50 0 50 0 0 -50 0 -50 50 0 50 0 0 100 0 100 -100
0 -100 0 0 -50z"/>
<path d="M3900 5250 l0 -50 -50 0 -50 0 0 -50 0 -50 100 0 100 0 0 -50 0 -50
-100 0 -100 0 0 -200 0 -200 50 0 50 0 0 50 0 50 50 0 50 0 0 -50 0 -50 150 0
150 0 0 -50 0 -50 -50 0 -50 0 0 -100 0 -100 50 0 50 0 0 -150 0 -150 -50 0
-50 0 0 100 0 100 -50 0 -50 0 0 150 0 150 -100 0 -100 0 0 -50 0 -50 -50 0
-50 0 0 50 0 50 -100 0 -100 0 0 -50 0 -50 -100 0 -100 0 0 50 0 50 -50 0 -50
0 0 -150 0 -150 -50 0 -50 0 0 -100 0 -100 -50 0 -50 0 0 -50 0 -50 50 0 50 0
0 50 0 50 50 0 50 0 0 100 0 100 50 0 50 0 0 -100 0 -100 50 0 50 0 0 -100 0
-100 50 0 50 0 0 100 0 100 50 0 50 0 0 50 0 50 50 0 50 0 0 -100 0 -100 -50
0 -50 0 0 -50 0 -50 50 0 50 0 0 50 0 50 50 0 50 0 0 150 0 150 -50 0 -50 0 0
50 0 50 100 0 100 0 0 -50 0 -50 50 0 50 0 0 -200 0 -200 -50 0 -50 0 0 -50 0
-50 50 0 50 0 0 50 0 50 50 0 50 0 0 50 0 50 50 0 50 0 0 50 0 50 100 0 100 0
0 50 0 50 -50 0 -50 0 0 150 0 150 -50 0 -50 0 0 50 0 50 100 0 100 0 0 50 0
50 50 0 50 0 0 50 0 50 50 0 50 0 0 50 0 50 50 0 50 0 0 50 0 50 -50 0 -50 0
0 50 0 50 -50 0 -50 0 0 -100 0 -100 -100 0 -100 0 0 -50 0 -50 -50 0 -50 0 0
100 0 100 -50 0 -50 0 0 100 0 100 -50 0 -50 0 0 50 0 50 -50 0 -50 0 0 50 0
50 -50 0 -50 0 0 -50z m200 -300 l0 -50 -50 0 -50 0 0 -50 0 -50 -50 0 -50 0
0 50 0 50 50 0 50 0 0 50 0 50 50 0 50 0 0 -50z m400 -300 l0 -50 -50 0 -50 0
0 50 0 50 50 0 50 0 0 -50z m-700 -300 l0 -50 -50 0 -50 0 0 50 0 50 50 0 50
0 0 -50z m-300 -100 l0 -50 -50 0 -50 0 0 50 0 50 50 0 50 0 0 -50z m200 -100
l0 -50 -50 0 -50 0 0 -50 0 -50 -50 0 -50 0 0 50 0 50 50 0 50 0 0 50 0 50 50
0 50 0 0 -50z"/>
<path d="M3600 5150 l0 -50 50 0 50 0 0 50 0 50 -50 0 -50 0 0 -50z"/>
<path d="M3600 4950 l0 -50 50 0 50 0 0 50 0 50 -50 0 -50 0 0 -50z"/>
<path d="M3000 4750 l0 -50 50 0 50 0 0 50 0 50 -50 0 -50 0 0 -50z"/>
<path d="M3600 4750 l0 -50 -50 0 -50 0 0 -50 0 -50 100 0 100 0 0 100 0 100
-50 0 -50 0 0 -50z"/>
<path d="M3200 4650 l0 -50 -50 0 -50 0 0 -50 0 -50 -100 0 -100 0 0 -50 0
-50 -50 0 -50 0 0 -100 0 -100 50 0 50 0 0 -100 0 -100 -50 0 -50 0 0 -50 0
-50 -100 0 -100 0 0 50 0 50 50 0 50 0 0 50 0 50 -50 0 -50 0 0 -50 0 -50 -50
0 -50 0 0 -100 0 -100 -100 0 -100 0 0 100 0 100 50 0 50 0 0 100 0 100 -50 0
-50 0 0 -100 0 -100 -200 0 -200 0 0 50 0 50 -50 0 -50 0 0 50 0 50 -50 0 -50
0 0 50 0 50 -50 0 -50 0 0 -50 0 -50 -100 0 -100 0 0 -50 0 -50 -50 0 -50 0 0
50 0 50 -100 0 -100 0 0 -50 0 -50 50 0 50 0 0 -50 0 -50 50 0 50 0 0 -50 0
-50 -50 0 -50 0 0 -50 0 -50 -50 0 -50 0 0 50 0 50 -50 0 -50 0 0 -50 0 -50
50 0 50 0 0 -50 0 -50 50 0 50 0 0 50 0 50 50 0 50 0 0 50 0 50 50 0 50 0 0
50 0 50 100 0 100 0 0 50 0 50 50 0 50 0 0 -50 0 -50 50 0 50 0 0 -50 0 -50
50 0 50 0 0 -50 0 -50 50 0 50 0 0 50 0 50 100 0 100 0 0 -50 0 -50 50 0 50 0
0 -50 0 -50 50 0 50 0 0 -50 0 -50 50 0 50 0 0 50 0 50 200 0 200 0 0 50 0 50
50 0 50 0 0 300 0 300 50 0 50 0 0 50 0 50 50 0 50 0 0 50 0 50 100 0 100 0 0
50 0 50 -100 0 -100 0 0 -50z m-300 -800 l0 -50 -50 0 -50 0 0 50 0 50 50 0
50 0 0 -50z"/>
<path d="M2000 4450 l0 -50 50 0 50 0 0 -50 0 -50 -50 0 -50 0 0 -100 0 -100
100 0 100 0 0 50 0 50 -50 0 -50 0 0 50 0 50 100 0 100 0 0 50 0 50 -100 0
-100 0 0 50 0 50 -50 0 -50 0 0 -50z"/>
<path d="M1800 4350 l0 -50 50 0 50 0 0 50 0 50 -50 0 -50 0 0 -50z"/>
<path d="M4400 3850 l0 -50 -50 0 -50 0 0 -50 0 -50 -50 0 -50 0 0 -50 0 -50
-200 0 -200 0 0 50 0 50 -50 0 -50 0 0 -50 0 -50 -50 0 -50 0 0 50 0 50 -50 0
-50 0 0 -50 0 -50 50 0 50 0 0 -50 0 -50 -200 0 -200 0 0 50 0 50 -50 0 -50 0
0 50 0 50 100 0 100 0 0 -50 0 -50 50 0 50 0 0 50 0 50 -50 0 -50 0 0 50 0 50
-100 0 -100 0 0 -50 0 -50 -50 0 -50 0 0 -150 0 -150 -50 0 -50 0 0 100 0 100
-50 0 -50 0 0 -100 0 -100 -50 0 -50 0 0 -50 0 -50 -50 0 -50 0 0 100 0 100
-50 0 -50 0 0 -50 0 -50 -50 0 -50 0 0 50 0 50 -50 0 -50 0 0 -100 0 -100 -50
0 -50 0 0 100 0 100 -50 0 -50 0 0 50 0 50 50 0 50 0 0 50 0 50 -50 0 -50 0 0
-50 0 -50 -50 0 -50 0 0 -150 0 -150 100 0 100 0 0 -100 0 -100 50 0 50 0 0
100 0 100 50 0 50 0 0 -50 0 -50 50 0 50 0 0 50 0 50 50 0 50 0 0 -50 0 -50
100 0 100 0 0 -50 0 -50 50 0 50 0 0 -50 0 -50 -50 0 -50 0 0 -50 0 -50 -50 0
-50 0 0 -100 0 -100 -50 0 -50 0 0 -100 0 -100 50 0 50 0 0 50 0 50 100 0 100
0 0 -200 0 -200 50 0 50 0 0 -50 0 -50 -50 0 -50 0 0 -50 0 -50 -100 0 -100 0
0 -100 0 -100 -50 0 -50 0 0 -50 0 -50 -50 0 -50 0 0 50 0 50 -50 0 -50 0 0
100 0 100 -50 0 -50 0 0 -100 0 -100 50 0 50 0 0 -50 0 -50 -100 0 -100 0 0
150 0 150 -50 0 -50 0 0 150 0 150 -150 0 -150 0 0 -50 0 -50 50 0 50 0 0 -50
0 -50 50 0 50 0 0 -150 0 -150 -50 0 -50 0 0 -50 0 -50 -150 0 -150 0 0 50 0
50 50 0 50 0 0 50 0 50 -50 0 -50 0 0 -50 0 -50 -150 0 -150 0 0 -50 0 -50
150 0 150 0 0 -100 0 -100 -50 0 -50 0 0 -50 0 -50 50 0 50 0 0 -50 0 -50 50
0 50 0 0 50 0 50 -50 0 -50 0 0 50 0 50 50 0 50 0 0 50 0 50 100 0 100 0 0 50
0 50 150 0 150 0 0 -50 0 -50 50 0 50 0 0 -100 0 -100 -100 0 -100 0 0 -50 0
-50 100 0 100 0 0 50 0 50 100 0 100 0 0 -50 0 -50 200 0 200 0 0 50 0 50 -50
0 -50 0 0 50 0 50 50 0 50 0 0 200 0 200 50 0 50 0 0 50 0 50 100 0 100 0 0
-150 0 -150 100 0 100 0 0 100 0 100 50 0 50 0 0 -50 0 -50 50 0 50 0 0 -50 0
-50 50 0 50 0 0 -50 0 -50 50 0 50 0 0 50 0 50 150 0 150 0 0 -50 0 -50 -50 0
-50 0 0 -50 0 -50 50 0 50 0 0 50 0 50 50 0 50 0 0 100 0 100 -50 0 -50 0 0
100 0 100 -50 0 -50 0 0 100 0 100 -50 0 -50 0 0 -100 0 -100 -50 0 -50 0 0
50 0 50 -50 0 -50 0 0 50 0 50 50 0 50 0 0 50 0 50 100 0 100 0 0 50 0 50 -50
0 -50 0 0 100 0 100 -50 0 -50 0 0 50 0 50 50 0 50 0 0 50 0 50 50 0 50 0 0
50 0 50 50 0 50 0 0 50 0 50 50 0 50 0 0 50 0 50 100 0 100 0 0 50 0 50 -100
0 -100 0 0 100 0 100 50 0 50 0 0 -50 0 -50 50 0 50 0 0 50 0 50 50 0 50 0 0
-50 0 -50 50 0 50 0 0 50 0 50 -50 0 -50 0 0 50 0 50 -50 0 -50 0 0 50 0 50
150 0 150 0 0 150 0 150 -150 0 -150 0 0 -50z m200 -100 l0 -50 -100 0 -100 0
0 -50 0 -50 -50 0 -50 0 0 -50 0 -50 -50 0 -50 0 0 50 0 50 50 0 50 0 0 50 0
50 50 0 50 0 0 50 0 50 100 0 100 0 0 -50z m-800 -200 l0 -50 50 0 50 0 0 -50
0 -50 100 0 100 0 0 -50 0 -50 -50 0 -50 0 0 -150 0 -150 -50 0 -50 0 0 -100
0 -100 -50 0 -50 0 0 50 0 50 -50 0 -50 0 0 -50 0 -50 -200 0 -200 0 0 -50 0
-50 50 0 50 0 0 -50 0 -50 100 0 100 0 0 -50 0 -50 -150 0 -150 0 0 -50 0 -50
100 0 100 0 0 -50 0 -50 -50 0 -50 0 0 -100 0 -100 50 0 50 0 0 -50 0 -50 -50
0 -50 0 0 -50 0 -50 -50 0 -50 0 0 50 0 50 -50 0 -50 0 0 50 0 50 -50 0 -50 0
0 50 0 50 -50 0 -50 0 0 50 0 50 100 0 100 0 0 -100 0 -100 50 0 50 0 0 150 0
150 -100 0 -100 0 0 100 0 100 50 0 50 0 0 -50 0 -50 50 0 50 0 0 100 0 100
-50 0 -50 0 0 50 0 50 -100 0 -100 0 0 -100 0 -100 -50 0 -50 0 0 150 0 150
50 0 50 0 0 50 0 50 150 0 150 0 0 -50 0 -50 100 0 100 0 0 50 0 50 50 0 50 0
0 100 0 100 100 0 100 0 0 -50 0 -50 50 0 50 0 0 150 0 150 -50 0 -50 0 0 50
0 50 -50 0 -50 0 0 50 0 50 50 0 50 0 0 -50z m-400 -300 l0 -150 -150 0 -150
0 0 150 0 150 150 0 150 0 0 -150z m300 100 l0 -50 -50 0 -50 0 0 50 0 50 50
0 50 0 0 -50z m100 -900 l0 -150 -50 0 -50 0 0 -50 0 -50 -50 0 -50 0 0 100 0
100 50 0 50 0 0 100 0 100 50 0 50 0 0 -150z m-100 -400 l0 -50 -50 0 -50 0 0
50 0 50 50 0 50 0 0 -50z m300 -200 l0 -50 -100 0 -100 0 0 -50 0 -50 -50 0
-50 0 0 50 0 50 50 0 50 0 0 50 0 50 100 0 100 0 0 -50z m-1200 -100 l0 -50
-50 0 -50 0 0 -100 0 -100 -50 0 -50 0 0 -50 0 -50 -50 0 -50 0 0 100 0 100
50 0 50 0 0 50 0 50 50 0 50 0 0 50 0 50 50 0 50 0 0 -50z"/>
<path d="M3600 2950 l0 -50 50 0 50 0 0 50 0 50 -50 0 -50 0 0 -50z"/>
<path d="M3200 2850 l0 -50 50 0 50 0 0 50 0 50 -50 0 -50 0 0 -50z"/>
<path d="M3300 2050 l0 -50 50 0 50 0 0 50 0 50 -50 0 -50 0 0 -50z"/>
<path d="M3200 3250 l0 -50 50 0 50 0 0 50 0 50 -50 0 -50 0 0 -50z"/>
<path d="M1800 3600 l0 -100 -50 0 -50 0 0 -50 0 -50 -50 0 -50 0 0 -50 0 -50
50 0 50 0 0 50 0 50 50 0 50 0 0 -50 0 -50 50 0 50 0 0 50 0 50 -50 0 -50 0 0
50 0 50 50 0 50 0 0 100 0 100 -50 0 -50 0 0 -100z"/>
<path d="M1500 3550 l0 -50 50 0 50 0 0 50 0 50 -50 0 -50 0 0 -50z"/>
<path d="M1000 2650 l0 -50 50 0 50 0 0 50 0 50 -50 0 -50 0 0 -50z"/>
<path d="M1200 2600 l0 -100 100 0 100 0 0 50 0 50 -50 0 -50 0 0 50 0 50 -50
0 -50 0 0 -100z"/>
<path d="M2400 2650 l0 -50 50 0 50 0 0 50 0 50 -50 0 -50 0 0 -50z"/>
<path d="M2200 2350 l0 -50 50 0 50 0 0 -100 0 -100 50 0 50 0 0 100 0 100
-50 0 -50 0 0 50 0 50 -50 0 -50 0 0 -50z"/>
<path d="M2500 2300 l0 -100 50 0 50 0 0 -50 0 -50 50 0 50 0 0 50 0 50 50 0
50 0 0 100 0 100 -50 0 -50 0 0 -50 0 -50 -50 0 -50 0 0 50 0 50 -50 0 -50 0
0 -100z"/>
<path d="M4900 2250 l0 -50 -50 0 -50 0 0 -50 0 -50 50 0 50 0 0 -50 0 -50 50
0 50 0 0 -50 0 -50 50 0 50 0 0 50 0 50 -50 0 -50 0 0 50 0 50 50 0 50 0 0 50
0 50 -50 0 -50 0 0 50 0 50 -50 0 -50 0 0 -50z"/>
<path d="M4300 1750 l0 -50 150 0 150 0 0 50 0 50 -150 0 -150 0 0 -50z"/>
<path d="M4300 1550 l0 -50 50 0 50 0 0 50 0 50 -50 0 -50 0 0 -50z"/>
<path d="M3700 1450 l0 -50 -50 0 -50 0 0 -50 0 -50 50 0 50 0 0 50 0 50 50 0
50 0 0 50 0 50 -50 0 -50 0 0 -50z"/>
<path d="M5200 1450 l0 -50 50 0 50 0 0 50 0 50 -50 0 -50 0 0 -50z"/>
<path d="M2500 800 l0 -100 50 0 50 0 0 100 0 100 -50 0 -50 0 0 -100z"/>
<path d="M1000 3250 l0 -50 50 0 50 0 0 50 0 50 -50 0 -50 0 0 -50z"/>
<path d="M5400 3250 l0 -50 50 0 50 0 0 50 0 50 -50 0 -50 0 0 -50z"/>
<path d="M3200 1050 l0 -50 50 0 50 0 0 50 0 50 -50 0 -50 0 0 -50z"/>
<path d="M5400 1050 l0 -50 50 0 50 0 0 50 0 50 -50 0 -50 0 0 -50z"/>
<path d="M4800 6050 l0 -50 50 0 50 0 0 50 0 50 -50 0 -50 0 0 -50z"/>
<path d="M5400 5750 l0 -350 350 0 350 0 0 350 0 350 -350 0 -350 0 0 -350z
m600 0 l0 -250 -250 0 -250 0 0 250 0 250 250 0 250 0 0 -250z"/>
<path d="M5600 5750 l0 -150 150 0 150 0 0 150 0 150 -150 0 -150 0 0 -150z"/>
<path d="M4600 5950 l0 -50 -50 0 -50 0 0 -50 0 -50 50 0 50 0 0 50 0 50 50 0
50 0 0 50 0 50 -50 0 -50 0 0 -50z"/>
<path d="M1500 5850 l0 -50 50 0 50 0 0 50 0 50 -50 0 -50 0 0 -50z"/>
<path d="M2500 5750 l0 -50 50 0 50 0 0 50 0 50 -50 0 -50 0 0 -50z"/>
<path d="M2700 5750 l0 -50 50 0 50 0 0 50 0 50 -50 0 -50 0 0 -50z"/>
<path d="M4700 5650 l0 -50 50 0 50 0 0 50 0 50 -50 0 -50 0 0 -50z"/>
<path d="M400 5250 l0 -50 100 0 100 0 0 50 0 50 -100 0 -100 0 0 -50z"/>
<path d="M6000 5050 l0 -50 -50 0 -50 0 0 -50 0 -50 50 0 50 0 0 50 0 50 50 0
50 0 0 50 0 50 -50 0 -50 0 0 -50z"/>
<path d="M6000 4100 l0 -100 50 0 50 0 0 100 0 100 -50 0 -50 0 0 -100z"/>
<path d="M5700 4000 l0 -100 50 0 50 0 0 50 0 50 50 0 50 0 0 50 0 50 -100 0
-100 0 0 -100z"/>
<path d="M6000 3050 l0 -50 50 0 50 0 0 50 0 50 -50 0 -50 0 0 -50z"/>
<path d="M4500 2850 l0 -50 100 0 100 0 0 50 0 50 -100 0 -100 0 0 -50z"/>
<path d="M6000 1850 l0 -50 50 0 50 0 0 50 0 50 -50 0 -50 0 0 -50z"/>
<path d="M400 750 l0 -350 350 0 350 0 0 350 0 350 -350 0 -350 0 0 -350z
m600 0 l0 -250 -250 0 -250 0 0 250 0 250 250 0 250 0 0 -250z"/>
<path d="M600 750 l0 -150 150 0 150 0 0 150 0 150 -150 0 -150 0 0 -150z"/>
<path d="M4400 450 l0 -50 50 0 50 0 0 50 0 50 -50 0 -50 0 0 -50z"/>
<path d="M4600 450 l0 -50 100 0 100 0 0 50 0 50 -100 0 -100 0 0 -50z"/>
</g>
</svg>
