<svg version="1" xmlns="http://www.w3.org/2000/svg" width="682.667" height="682.667" viewBox="0 0 512.000000 512.000000"><path d="M61.4 60.5C46.5 63.7 34.7 70.4 23 82 11.2 93.8 4.7 105.5 1.5 120.8c-2.2 10-2.2 260.4 0 270.4 3.2 15.3 9.7 27 21.5 38.8 8.9 8.9 15.7 13.5 26 17.7 11.4 4.6 17.5 5.3 47 5.3 26.1 0 27.7-.1 31.5-2.1 8.2-4.4 10.3-9.5 10.4-25.2l.1-11.7h18.8l.4 13c.4 12.4.5 13.1 3.3 17.1 1.7 2.4 5 5.3 7.4 6.6l4.4 2.3h83.6c79.5 0 83.8-.1 87.7-1.9 4.5-2.1 8.5-6.7 10.3-12 .6-1.9 1.1-8.3 1.1-14.2V414h19v11.7c.1 16.2 3 22.4 12.4 26 4.7 1.8 55.2 1.7 63.8-.2 15.3-3.2 27-9.7 38.8-21.5 11.8-11.8 18.3-23.5 21.5-38.8 2.2-10 2.2-260.4 0-270.4-3.2-15.3-9.7-27-21.5-38.8-11.8-11.8-23.5-18.3-38.8-21.5-9.7-2.1-379.4-2.1-388.8 0zM449 102.6c8.3 3.9 15.5 11.1 19.4 19.4l3.1 6.5v255l-3.1 6.5c-3.9 8.4-11.1 15.5-19.4 19.4-6.1 2.9-7.4 3.1-20.6 3.4l-14.2.4-.4-13.1c-.4-12.5-.5-13.2-3.3-17.2-1.7-2.4-5-5.3-7.4-6.6-4.4-2.3-4.7-2.3-38.5-2.3-31.8 0-34.4.2-38.5 2-8.6 3.9-10.9 9.2-11 25.2L315 413H197v-12.3c0-13.4-1.2-17.4-6.8-22.2-4.9-4.3-8.6-4.6-44.9-4.3l-34.1.3-4.3 3c-6.8 4.8-8.3 8.9-8.7 23.4l-.4 12.3-14.1-.4c-13.4-.3-14.6-.5-20.7-3.4-8.3-3.9-15.5-11-19.4-19.4l-3.1-6.5v-255l3.1-6.5c5-10.7 15.4-19.4 26.1-21.9 2.2-.5 83.1-.8 188.3-.8l184.5.2 6.5 3.1z"/><path d="M142.6 141.4c-15.7 6.6-23.8 20.5-24 41.5-.1 15.8 3.9 27.2 14 39.1 5.6 6.7 7 10.1 5.9 15-.9 4.1-4.1 6.3-15.3 10.6-20.4 7.8-35.7 17-40.5 24.3-4.5 6.8-4.7 18.9-.3 25.3 6.4 9.5 24.9 15 57 16.8 42.4 2.5 79-3 90.4-13.4 4.2-3.7 5.2-7 5.2-16.4 0-8.2-.2-9.2-2.9-12.9-5.6-7.7-19.9-16-40.5-23.5-13.8-5-15.1-6.1-15-13.2 0-4.8.4-5.9 4-10 10.8-12.8 14.5-21.9 15.2-37.5.7-17.4-2.8-29.2-11.6-37.9-6.9-7-13.8-9.6-25.7-10-8.8-.2-10.7.1-15.9 2.2zM346 140.9c-27.5 6.1-47.1 21.3-59.5 46-10.8 21.6-11.7 51-2.4 75.3 7.6 19.6 23.7 36.2 42.9 44.3 18.7 7.9 41.4 9.3 68.8 4.4l6.2-1.1v-10.9c0-6-.3-10.9-.7-10.9-.5 0-5.3 1-10.8 2.1-7.4 1.6-13.8 2.2-24.5 2.3-13.4.1-15.1-.1-22.5-2.7-15.9-5.6-27.4-15.6-34.6-30.2-4.9-10-6.9-19.7-6.9-32.8.1-13.1 1.8-21 7-31.4 12.6-25.5 39.8-39 68-33.9 23.2 4.2 39.3 19.6 45.7 43.6 3.4 13 1.9 37.5-3.1 49.5l-1.5 3.5H403v-80h-24v4.9l-4.3-2.5c-15.8-8.8-37.5-1.8-48.7 15.7-1.8 2.7-4.3 8.1-5.7 12.1-2.2 6.2-2.6 9.1-2.6 19.3-.1 23.5 7.3 39.4 21.6 46.5 11.1 5.4 25.2 5 36.4-1 5.6-3 6.3-2.9 6.3.7v2.3h52.7l4.1-8.3c9.5-19.2 12.3-47 6.7-67.9-7.5-28.8-29.1-50.3-58-57.9-11.7-3-30.3-3.5-41.5-1zm29.3 58.4l3.7 1.6V250l-4.2 3c-11.2 8.1-23.2 5.7-28.6-5.8-2.5-5.3-2.7-6.7-2.7-18.7 0-12.7.1-13.2 3.3-19.7 4.5-9.2 9-12 18.2-11.5 3.6.2 8.2 1.1 10.3 2z"/></svg>