<?xml version="1.0" standalone="no"?>
<!DOCTYPE svg PUBLIC "-//W3C//DTD SVG 20010904//EN"
 "http://www.w3.org/TR/2001/REC-SVG-20010904/DTD/svg10.dtd">
<svg version="1.0" xmlns="http://www.w3.org/2000/svg"
 width="333.000000pt" height="333.000000pt" viewBox="0 0 333.000000 333.000000"
 preserveAspectRatio="xMidYMid meet">
<metadata>
Created by potrace 1.11, written by Peter Selinger 2001-2013
</metadata>
<g transform="translate(0.000000,333.000000) scale(0.100000,-0.100000)"
fill="#FF0025" stroke="none">
<path d="M2903 3045 c-179 -91 -515 -184 -826 -230 -226 -32 -559 -75 -682
-86 -228 -21 -608 -12 -705 17 -63 19 -66 18 -62 -19 3 -29 -1 -36 -42 -65
-25 -18 -48 -37 -51 -42 -10 -17 53 -40 109 -40 45 0 58 -4 70 -22 9 -12 30
-27 48 -32 26 -9 36 -20 46 -51 20 -62 29 -65 184 -65 137 0 139 0 148 -24 5
-13 14 -27 19 -31 20 -12 12 -70 -13 -94 -15 -14 -22 -30 -19 -41 7 -25 -14
-29 -157 -33 l-115 -2 1 -47 c0 -26 4 -51 8 -55 4 -5 71 -8 149 -8 l142 0 -1
-80 c0 -44 -4 -140 -9 -214 -8 -125 -10 -135 -34 -157 -24 -22 -34 -24 -128
-24 -99 0 -159 11 -149 28 3 5 -6 19 -19 30 -38 33 -29 92 13 92 11 0 68 49
59 50 -129 26 -204 27 -274 5 -19 -6 30 -55 55 -55 41 0 43 -54 2 -100 -24
-27 -30 -43 -30 -80 0 -41 3 -47 29 -57 l30 -11 -1 -166 -1 -166 -31 -33 c-25
-26 -30 -39 -28 -70 3 -30 9 -41 29 -50 l26 -11 -7 -109 c-3 -59 -11 -129 -16
-155 -10 -42 -8 -52 17 -102 25 -48 32 -55 61 -57 53 -4 67 9 81 79 9 47 9 81
2 133 -6 39 -12 104 -13 145 l-3 75 134 8 c74 4 140 6 147 3 20 -8 8 -94 -28
-210 l-30 -99 36 -34 c23 -22 36 -43 36 -60 0 -16 7 -27 20 -30 22 -6 25 -14
10 -29 -17 -17 13 -45 56 -53 52 -9 74 -3 74 20 0 10 5 19 12 19 8 0 8 3 3 9
-6 6 -30 11 -54 13 -52 4 -67 25 -23 34 18 4 32 14 35 25 4 15 11 18 34 13 34
-7 33 -14 32 218 -1 196 -12 181 136 176 l90 -3 4 -55 c1 -30 -2 -95 -9 -145
-10 -74 -9 -95 2 -116 36 -68 78 -76 115 -20 19 28 23 44 18 80 -3 25 -8 94
-11 154 -6 104 -5 107 15 107 14 0 21 -6 21 -19 0 -11 9 -23 20 -26 18 -6 20
-15 20 -95 0 -49 -4 -100 -10 -114 -5 -15 -13 -62 -16 -106 -6 -68 -4 -83 10
-99 12 -14 17 -32 15 -63 l-4 -43 64 0 c58 0 66 3 84 27 11 15 21 40 23 55 1
15 6 42 11 58 9 28 6 53 -33 310 -10 69 7 80 123 80 144 -1 137 7 128 -133
-11 -165 -9 -232 8 -259 4 -7 5 -23 1 -37 -5 -22 -2 -25 27 -28 48 -5 50 -28
2 -25 -37 2 -38 1 -38 -32 0 -31 3 -35 43 -47 40 -11 45 -11 60 7 9 10 26 18
37 18 17 -1 17 -2 3 -6 -10 -2 -18 -8 -18 -13 0 -15 19 -22 41 -15 14 5 18 12
14 26 -5 14 -2 19 13 19 16 0 22 12 32 62 7 35 21 75 32 90 23 33 23 64 -1
130 -28 77 -48 205 -34 226 11 19 68 30 159 31 68 1 88 -12 80 -51 -3 -12 -7
-77 -10 -142 -7 -139 4 -186 41 -186 25 0 43 -28 25 -39 -5 -3 -12 -15 -14
-26 -2 -16 3 -20 26 -20 25 0 30 4 33 30 3 16 11 44 19 61 20 41 20 44 4 216
-12 135 -12 149 3 166 21 23 22 71 2 108 -22 44 -22 366 1 385 16 13 16 64 -1
119 -4 14 -10 44 -12 68 -4 37 -2 44 15 49 12 3 28 16 37 29 15 23 14 25 -2
32 -24 9 -203 9 -226 0 -16 -7 -17 -9 -2 -32 9 -14 26 -26 38 -28 13 -2 25
-14 31 -30 8 -22 5 -34 -19 -68 l-28 -41 -110 3 -110 3 -12 45 c-31 105 -49
223 -53 343 -2 71 0 133 5 138 5 5 92 16 193 25 102 9 190 21 197 26 16 13 22
138 6 138 -6 0 -64 -9 -128 -20 -144 -25 -213 -26 -221 -5 -4 10 -13 13 -25
10 -15 -5 -19 -1 -19 17 1 13 -2 38 -6 57 -5 26 -3 36 10 43 9 5 16 19 16 32
0 13 6 29 14 35 8 7 90 23 182 37 93 15 180 31 193 38 16 7 30 28 41 60 16 49
41 76 69 76 9 0 29 7 44 15 27 14 81 27 122 30 11 1 31 6 45 12 14 6 33 14 44
17 24 8 17 37 -29 115 -41 70 -44 100 -10 129 26 23 34 63 13 60 -7 -1 -59
-25 -115 -53z m-803 -570 c0 -8 11 -22 25 -31 38 -25 34 -65 -10 -99 -27 -20
-34 -32 -30 -46 8 -25 3 -26 -139 -39 -82 -7 -123 -7 -130 0 -7 7 -4 33 8 82
33 134 25 126 126 141 14 3 53 5 88 6 49 1 62 -2 62 -14z m-557 -70 c12 -41
36 -147 37 -162 0 -14 -30 -20 -152 -28 -96 -7 -98 -7 -107 17 -5 13 -16 30
-25 37 -20 17 -21 75 -1 91 8 7 15 21 15 31 0 10 6 21 13 26 17 11 102 21 161
19 46 -1 50 -3 59 -31z m594 -271 c6 -15 -12 -375 -23 -463 l-6 -44 -100 6
c-96 6 -135 18 -122 39 3 5 -1 15 -9 21 -8 7 -18 26 -22 43 -7 36 13 64 47 64
11 0 22 8 25 20 3 11 9 20 14 20 5 0 9 4 9 9 0 5 -33 16 -72 25 -66 14 -80 15
-143 1 -38 -8 -74 -15 -79 -15 -5 0 -2 -8 7 -18 10 -10 17 -24 17 -30 0 -6 11
-14 25 -18 52 -13 21 -20 -87 -19 -131 0 -154 -5 -138 -34 5 -11 19 -23 30
-26 26 -8 27 -70 2 -103 -17 -21 -24 -23 -112 -20 -86 3 -95 5 -98 23 -2 11
-9 27 -16 35 -9 11 -11 68 -7 222 3 113 9 209 13 213 8 8 134 18 488 40 146 9
270 18 275 20 29 10 76 4 82 -11z m-399 -402 c2 -13 -3 -25 -12 -28 -9 -3 -16
-15 -16 -25 0 -10 -4 -19 -9 -19 -5 0 -17 -7 -25 -16 -22 -21 -36 -9 -36 31 0
26 5 35 23 41 12 4 28 15 35 26 17 24 36 19 40 -10z m-5 -209 c3 -10 5 -96 6
-192 0 -170 -1 -175 -23 -196 l-23 -22 -27 31 c-26 30 -26 32 -26 188 0 153 1
158 23 169 12 7 26 18 30 25 11 20 35 17 40 -3z m355 -2 c10 -6 15 -49 18
-162 3 -85 5 -171 6 -191 1 -21 -3 -43 -9 -49 -7 -7 -52 -12 -109 -13 l-98 -1
-16 34 c-14 27 -16 63 -13 200 2 91 3 172 3 179 0 14 196 17 218 3z m500 -184
c2 -173 2 -178 -20 -201 -20 -20 -35 -24 -109 -29 -47 -2 -93 0 -102 5 -14 8
-17 27 -16 126 0 64 -2 149 -6 189 -4 39 -4 76 0 82 4 8 46 11 128 9 l122 -3
3 -178z m-1478 158 c7 -9 9 -26 5 -45 -4 -16 -7 -87 -7 -157 0 -177 3 -173
-149 -173 -98 0 -119 3 -119 15 0 8 -9 19 -20 25 -19 10 -20 21 -20 174 0 89
3 166 7 169 3 4 70 7 148 7 113 0 145 -3 155 -15z m421 -125 c4 -69 10 -133
14 -143 9 -20 -11 -76 -33 -94 -10 -8 -49 -13 -108 -13 l-92 0 -19 33 c-17 28
-19 50 -17 187 1 85 2 156 3 158 1 1 56 1 124 0 l122 -3 6 -125z"/>
<path d="M5 1628 c-12 -30 1 -87 25 -106 24 -19 21 -42 -6 -42 -19 0 -18 -9 3
-32 16 -18 16 -19 -5 -25 -20 -5 -22 -12 -22 -80 0 -43 4 -72 9 -68 18 11 24
-18 7 -31 -10 -7 -16 -21 -14 -31 3 -16 5 -16 26 5 22 22 42 29 42 14 0 -14
142 -11 204 5 33 8 78 14 100 12 23 -1 52 -1 66 0 24 2 24 2 6 16 -16 12 -17
17 -6 30 8 10 9 15 1 15 -16 0 -14 19 4 37 19 18 10 37 -12 24 -19 -10 -46
-71 -33 -71 6 0 10 -5 10 -11 0 -5 -5 -7 -10 -4 -6 4 -17 1 -25 -5 -8 -7 -23
-9 -32 -5 -16 6 -16 8 5 23 l22 17 -25 28 c-30 31 -55 35 -55 8 0 -11 -10 -22
-22 -26 -13 -3 -18 -9 -11 -11 20 -9 3 -34 -23 -34 -13 0 -24 -4 -24 -10 0
-19 -29 -10 -48 15 -20 25 -56 33 -67 15 -9 -14 -45 7 -45 25 0 8 4 15 10 15
14 0 61 50 55 60 -3 5 -1 11 4 14 5 3 12 -1 15 -9 5 -14 9 -14 35 0 22 11 36
12 56 5 15 -6 36 -10 48 -10 21 1 21 1 -3 15 -14 8 -33 14 -43 15 -11 0 -15 5
-11 11 9 16 -16 29 -36 19 -19 -10 -50 11 -50 34 0 12 10 16 43 16 30 0 38 3
27 10 -8 5 -12 12 -8 15 7 8 -27 45 -42 45 -5 0 -10 -7 -10 -15 0 -8 -4 -15
-9 -15 -5 0 -7 16 -5 36 4 30 2 35 -13 32 -14 -3 -17 -12 -16 -41 1 -20 -1
-37 -6 -37 -13 0 -41 35 -41 52 0 8 -9 23 -20 33 -17 15 -20 15 -25 3z m35
-268 c0 -5 -7 -10 -15 -10 -8 0 -15 5 -15 10 0 6 7 10 15 10 8 0 15 -4 15 -10z"/>
<path d="M227 1528 c-8 -27 -1 -38 23 -38 29 0 34 19 11 41 -25 24 -27 24 -34
-3z"/>
<path d="M437 1444 c-16 -16 -5 -43 23 -58 17 -8 30 -10 30 -5 0 5 7 9 15 9
13 0 14 4 5 20 -6 12 -16 17 -26 13 -8 -3 -20 2 -27 11 -7 10 -16 14 -20 10z"/>
<path d="M290 1432 c0 -14 11 -21 26 -15 21 8 17 23 -6 23 -11 0 -20 -4 -20
-8z"/>
<path d="M523 1293 c-18 -7 -16 -30 3 -37 22 -9 33 1 27 24 -5 21 -9 22 -30
13z"/>
<path d="M475 1270 c-3 -5 -1 -10 4 -10 6 0 11 5 11 10 0 6 -2 10 -4 10 -3 0
-8 -4 -11 -10z"/>
<path d="M705 550 c-3 -5 -1 -19 5 -30 16 -31 100 -26 100 6 0 26 -91 47 -105
24z"/>
<path d="M2620 400 c0 -5 7 -10 15 -10 8 0 15 5 15 10 0 6 -7 10 -15 10 -8 0
-15 -4 -15 -10z"/>
<path d="M1765 310 c3 -5 8 -10 11 -10 2 0 4 5 4 10 0 6 -5 10 -11 10 -5 0 -7
-4 -4 -10z"/>
<path d="M2120 281 c0 -9 52 -22 60 -15 7 7 -23 24 -42 24 -10 0 -18 -4 -18
-9z"/>
<path d="M2176 175 c-20 -30 -13 -34 57 -32 49 1 56 7 33 26 -11 9 -20 10 -35
1 -18 -9 -21 -8 -21 10 0 27 -14 25 -34 -5z"/>
</g>
</svg>
