<svg class="kafLogo" viewBox="0 0 55.000001 55.000001" height="512" width="512">
  <g transform="translate(0,-997.36216)">
    <path id="ka" d="m 45.03418,1020.2479 0,-10.9863 -4.394531,0 0,10.9863 4.394531,0 z m -6.416016,3.7793 0,-16.6992 8.613281,0 0,16.1719 -2.197265,0 0,-1.4063 -4.394531,0 0,1.9336 -2.021485,0 z m -3.955078,-16.5234 0,3.1641 3.251953,0 0,1.8457 -3.251953,0 0,1.582 q 1.054688,0.9668 3.515625,2.5488 l -0.878906,1.3184 q -0.08789,0.088 -0.263672,0.6152 -1.054688,-0.791 -2.373047,-1.8457 l 0,7.9102 -1.933594,0 0,-8.086 q -1.230468,1.8457 -1.669922,2.461 -0.351562,0.5273 -1.757812,2.0215 -0.615234,-0.8789 -1.669922,-1.67 1.318359,-1.2304 2.724609,-3.0761 0.791016,-0.9668 2.285157,-3.7793 l -4.306641,0 0,-1.8457 4.394531,0 0,-2.9004 -3.339843,0.4394 q -0.263672,-0.791 -0.966797,-1.8457 3.691406,-0.2636 5.009765,-0.6152 1.31836,-0.1758 3.691407,-0.9668 l 1.142578,1.9336 q -2.460938,0.5273 -3.603516,0.791 z"/>
    <path id="zu" d="m 20.776368,1022.1815 0,-2.1972 -2.636719,0 0,2.1972 2.636719,0 z m 4.833984,0 0,-2.1972 -3.076172,0 0,2.1972 3.076172,0 z m -4.833984,-3.6914 0,-1.8457 -2.636719,0 0,1.8457 2.636719,0 z m 4.833984,0 0,-1.8457 -3.076172,0 0,1.8457 3.076172,0 z m -9.316406,6.2403 0,-9.8438 11.162109,0 0,9.5801 -1.845703,0 0,-0.6153 -7.470703,0 0,0.879 -1.845703,0 z m 8.349609,-13.0958 0,-1.582 -5.71289,0 0,1.582 5.71289,0 z m -7.470703,1.7579 0,-4.834 9.316406,0 0,4.834 -9.316406,0 z m -0.878906,-6.3282 0,-1.6699 11.33789,0 0,1.6699 -11.33789,0 z m -5.361328,1.1426 0,-3.5156 2.109375,0 0,3.5156 1.845703,0 0.263672,-0.088 1.230468,1.0547 -1.757812,3.0762 q -0.175781,0.2637 -0.351563,0.6152 -0.08789,0.2637 -0.527343,0.791 0.966797,1.1426 2.373047,2.6368 l -1.31836,1.582 q -1.230469,-1.2305 -1.845703,-2.0215 l 0,8.7891 -2.109375,0 0,-8.086 q -1.2304687,1.0547 -1.9335937,1.5821 -0.4394531,-0.9668 -1.1425781,-1.9336 2.1972656,-1.3184 3.5156248,-2.7246 1.230469,-1.4063 2.373047,-3.5157 l -5.1855468,0 0,-1.7578 2.4609378,0 z"/>
    <path id="fu" d="m 28.90625,1028.9492 0,-4.2188 2.021484,0 0,4.2188 2.021485,0 0,1.8457 -2.021485,0 0,1.7578 q 0.966797,1.1425 1.230469,1.4941 0.351562,0.3516 1.582031,1.4063 -0.878906,0.8789 -1.40625,1.6699 -0.263672,-0.2637 -0.527344,-0.4395 -0.175781,-0.2636 -0.439453,-0.5273 -0.175781,-0.2637 -0.439453,-0.4395 l 0,9.1407 -2.021484,0 0,-8.877 q -0.527344,1.0547 -1.230469,2.3731 -0.351562,0.5273 -0.703125,0.9667 -0.263672,0.3516 -0.791016,1.1426 -0.439453,-1.4941 -0.966796,-2.4609 1.40625,-2.0215 2.109375,-3.3399 0.878906,-1.4941 1.582031,-3.8671 l -3.076172,0 0,-1.8457 3.076172,0 z m 10.722656,9.8437 q 1.40625,-1.4941 1.669922,-2.0215 0.615234,-0.9668 0.878906,-1.6699 l -4.833984,0 q 0.791015,2.0215 2.285156,3.6914 z m -1.142578,-10.5469 0,-3.5156 2.021484,0 0,3.5156 5.185547,0 0,1.8457 -5.185547,0 0,3.3399 2.72461,0 0.263672,-0.1758 1.40625,1.2305 q -1.40625,2.5488 -1.845704,3.0761 -0.878906,1.3184 -1.933593,2.5489 2.373047,2.1093 5.185547,2.9004 -0.615235,0.6152 -1.31836,2.0214 -3.251953,-1.582 -5.361328,-3.4277 -1.230469,1.0547 -2.724609,1.8457 -1.494141,0.791 -3.603516,1.4941 -0.351562,-0.9667 -1.142578,-1.9335 1.40625,-0.2637 3.427734,-1.1426 1.054688,-0.5274 2.548828,-1.7578 -0.878906,-0.9668 -1.757812,-2.3731 -0.527344,-0.8789 -1.142578,-2.6367 l -1.142578,0 0,-1.6699 4.394531,0 0,-3.3399 -5.185547,0 0,-1.8457 5.185547,0 z"/>
    <path id="da" d="m 15.810547,1040.1552 0,-5.3613 -5.097657,0 0,5.3613 5.097657,0 z m 7.294922,0 0,-5.3613 -5.449219,0 0,5.3613 5.449219,0 z m 0,-7.0313 0,-5.1855 -5.449219,0 0,5.1855 5.449219,0 z m -7.294922,0 0,-5.1855 -5.097657,0 0,5.1855 5.097657,0 z m -7.119141,10.459 0,-17.4023 16.523438,0 0,17.2266 -2.109375,0 0,-1.4063 -12.392579,0 0,1.582 -2.021484,0 z"/>
  </g>
</svg>
